<?xml version="1.0" standalone="no"?>
<!DOCTYPE svg PUBLIC "-//W3C//DTD SVG 20010904//EN"
 "http://www.w3.org/TR/2001/REC-SVG-20010904/DTD/svg10.dtd">
<svg version="1.0" xmlns="http://www.w3.org/2000/svg"
 width="1484.994430pt" height="146.944013pt" viewBox="0 0 1484.994430 146.944013"
 preserveAspectRatio="none">
<g transform="translate(-0.003737,146.964736) rotate(-360.00) scale(0.095238,-0.095238)"
fill="#000000" stroke="none">
<path d="M443 1528 c-58 -25 -95 -57 -122 -103 -28 -48 -321 -1227 -321 -1291
0 -47 35 -101 79 -119 31 -13 1032 -15 7536 -15 l7500 0 47 22 c54 24 87 53
116 100 26 42 314 1222 314 1286 1 55 -24 94 -73 120 -27 14 -929 15 -7536 15
-6511 0 -7510 -2 -7540 -15z"/>
</g>
</svg>
