<?xml version="1.0" standalone="no"?>
<!DOCTYPE svg PUBLIC "-//W3C//DTD SVG 20010904//EN"
 "http://www.w3.org/TR/2001/REC-SVG-20010904/DTD/svg10.dtd">
<svg version="1.0" xmlns="http://www.w3.org/2000/svg"
 width="1374.702294pt" height="497.833852pt" viewBox="0 0 1374.702294 497.833852"
 preserveAspectRatio="none">
<g transform="translate(-0.297706,498.952079) rotate(-360.00) scale(0.095238,-0.095238)"
fill="#000000" stroke="none">
<path d="M1600 5219 c-257 -68 -502 -287 -587 -526 -24 -68 -991 -4044 -1005
-4133 -13 -87 1 -198 35 -275 52 -119 162 -215 292 -254 69 -21 94 -21 6280
-18 l6211 3 86 33 c248 96 442 289 524 522 8 24 237 955 508 2070 455 1871
494 2034 494 2118 -1 235 -131 407 -354 465 -53 14 -788 15 -6235 15 -6004 -1
-6176 -1 -6249 -20z"/>
</g>
</svg>
