<?xml version="1.0" standalone="no"?>
<!DOCTYPE svg PUBLIC "-//W3C//DTD SVG 20010904//EN"
 "http://www.w3.org/TR/2001/REC-SVG-20010904/DTD/svg10.dtd">
<svg version="1.0" xmlns="http://www.w3.org/2000/svg"
 width="254.781320pt" height="169.508602pt" viewBox="0 0 254.781320 169.508602"
 preserveAspectRatio="xMidYMid meet">
<g transform="translate(-0.129486,169.675056) rotate(-360.00) scale(0.095238,-0.095238)"
fill="#000000" stroke="none">
<path d="M213 1775 c-91 -22 -176 -105 -203 -200 -7 -24 -10 -273 -8 -710 l3
-672 32 -52 c42 -68 106 -116 176 -130 38 -8 387 -11 1157 -9 l1103 3 54 29
c60 31 102 77 131 139 18 40 19 86 18 714 0 487 -3 681 -12 706 -24 62 -76
123 -134 155 l-57 32 -1113 1 c-612 1 -1128 -2 -1147 -6z m2132 -186 c-57 -45
-308 -241 -558 -436 l-454 -355 -561 428 c-345 263 -556 431 -548 435 7 5 510
8 1118 8 l1107 1 -104 -81z m208 -19 c18 -39 19 -86 19 -668 0 -604 -2 -692
-22 -692 -7 0 -881 682 -921 719 -11 11 69 78 430 361 485 378 456 362 494
280z m-1945 -294 c409 -312 440 -337 423 -353 -10 -9 -210 -181 -446 -382
-263 -223 -434 -362 -443 -359 -34 13 -38 85 -35 729 3 592 5 640 22 673 11
19 24 33 29 31 5 -2 208 -154 450 -339z m618 -472 c77 -60 111 -79 120 -72 8
6 60 47 116 91 l102 81 472 -371 c260 -203 472 -374 473 -378 0 -4 -13 -15
-30 -23 -28 -15 -167 -16 -1142 -16 -611 0 -1118 4 -1125 9 -10 6 115 119 436
392 250 214 454 381 460 376 6 -4 59 -44 118 -89z"/>
</g>
</svg>
