<?xml version="1.0" encoding="utf-8"?>
<!-- Svg Vector Icons : http://www.onlinewebfonts.com/icon -->
<!DOCTYPE svg PUBLIC "-//W3C//DTD SVG 1.1//EN" "http://www.w3.org/Graphics/SVG/1.1/DTD/svg11.dtd">
<svg version="1.1" xmlns="http://www.w3.org/2000/svg" xmlns:xlink="http://www.w3.org/1999/xlink" x="0px" y="0px" viewBox="0 0 1000 1000" enable-background="new 0 0 1000 1000" xml:space="preserve">
<metadata> Svg Vector Icons : http://www.onlinewebfonts.com/icon </metadata>
<g><path d="M503.7,990h-7.4c-41.1,0-74.7-33.6-74.7-74.7V84.7c0-41.1,33.6-74.7,74.7-74.7h7.4c41.1,0,74.7,33.6,74.7,74.7v830.6C578.4,956.4,544.8,990,503.7,990z"/><path d="M77.5,748.2l-3.7-6.4c-20.5-35.6-8.2-81.5,27.3-102l719.4-415.3c35.6-20.5,81.5-8.2,102,27.3l3.7,6.4c20.5,35.6,8.2,81.5-27.3,102L179.5,775.6C143.9,796.1,98,783.8,77.5,748.2z"/><path d="M73.8,258.2l3.7-6.5c20.5-35.6,66.4-47.9,102-27.3l719.4,415.3c35.6,20.5,47.9,66.4,27.3,102l-3.7,6.5c-20.5,35.6-66.4,47.9-102,27.3L101.1,360.2C65.5,339.7,53.3,293.8,73.8,258.2z"/></g>
</svg>