<?xml version="1.0" standalone="no"?>
<!DOCTYPE svg PUBLIC "-//W3C//DTD SVG 20010904//EN"
 "http://www.w3.org/TR/2001/REC-SVG-20010904/DTD/svg10.dtd">
<svg version="1.0" xmlns="http://www.w3.org/2000/svg"
 width="217.600307pt" height="256.634490pt" viewBox="0 0 217.600307 256.634490"
 preserveAspectRatio="xMidYMid meet">
<g transform="translate(-0.536430,256.634490) rotate(-360.00) scale(0.095238,-0.095238)"
fill="#000000" stroke="none">
<path d="M517 2688 c-94 -13 -181 -37 -271 -74 l-78 -33 -26 -83 c-41 -129
-74 -326 -105 -627 -65 -619 -27 -1269 97 -1666 l29 -95 63 -30 c98 -47 244
-80 354 -80 92 0 96 1 182 48 48 26 98 56 110 66 l22 18 -22 270 c-12 148 -21
281 -21 294 -1 19 -26 40 -124 104 -171 112 -206 144 -235 216 -24 57 -25 73
-25 312 0 250 1 253 29 324 16 39 38 85 50 101 11 16 83 69 159 117 76 49 139
93 141 99 2 6 14 140 26 298 22 280 22 289 3 303 -11 8 -61 38 -112 68 -102
58 -137 65 -246 50z m167 -154 l72 -38 0 -48 c0 -50 -16 -255 -27 -357 l-6
-56 -134 -87 -134 -87 -44 -88 c-63 -129 -75 -196 -75 -450 0 -233 11 -306 57
-397 34 -67 74 -104 206 -193 60 -41 113 -78 118 -82 9 -7 38 -325 39 -412 l0
-50 -73 -37 -73 -36 -82 11 c-92 13 -237 56 -253 75 -15 19 -50 143 -75 265
-104 520 -86 1349 44 1915 25 110 24 110 150 148 62 18 97 25 208 41 5 1 42
-16 82 -37z"/>
<path d="M1765 2428 l-66 -60 47 -58 c122 -150 228 -343 290 -532 142 -428 84
-835 -175 -1227 -34 -52 -86 -124 -116 -159 -30 -36 -54 -69 -54 -74 1 -11
123 -113 135 -113 15 0 125 138 198 249 116 177 201 374 244 570 30 137 30
477 0 624 -41 202 -137 430 -260 620 -59 91 -159 221 -170 221 -3 0 -36 -28
-73 -61z"/>
<path d="M1372 2203 l-37 -45 60 -63 c68 -71 151 -190 198 -284 126 -251 145
-527 55 -794 -34 -99 -129 -276 -195 -366 l-59 -78 46 -40 c25 -22 48 -39 51
-39 10 0 108 139 159 225 289 491 232 1021 -157 1462 -32 36 -64 66 -71 66 -7
0 -30 -20 -50 -44z"/>
<path d="M1035 1944 c-17 -20 -16 -23 36 -87 70 -87 152 -253 180 -366 18 -74
21 -109 17 -205 -8 -161 -55 -291 -158 -439 -39 -55 -41 -62 -26 -77 25 -25
43 -13 92 59 62 92 112 202 138 304 18 74 21 109 17 215 -7 154 -24 221 -92
358 -49 100 -150 247 -174 254 -6 2 -20 -5 -30 -16z"/>
</g>
</svg>
